REM DIRINDEX 1\2,1\3,1\4,1\6,1\5\7,1\5\8
REM DIRNAME cjc114,folder01,folder02,folder03,folder04,folder05,folder06,folder07
TITLE ""
FILE "DB4500_5th_2A_33.mp3" MP3
  TRACK 01 AUDIO
    TITLE "0:"
    INDEX 01 00:00:00
  TRACK 02 AUDIO
    TITLE "2:cjc114_1033"
    INDEX 01 00:00:01
  TRACK 03 AUDIO
    TITLE "0:"
    INDEX 01 00:01:11
  TRACK 04 AUDIO
    TITLE "3:cjc114_1034"
    INDEX 01 00:01:38
  TRACK 05 AUDIO
    TITLE "0:"
    INDEX 01 00:02:59
  TRACK 06 AUDIO
    TITLE "4:cjc114_1035"
    INDEX 01 00:03:10
  TRACK 07 AUDIO
    TITLE "0:"
    INDEX 01 00:06:20
  TRACK 08 AUDIO
    TITLE "2:cjc114_1036"
    INDEX 01 00:06:73
  TRACK 09 AUDIO
    TITLE "0:"
    INDEX 01 00:08:38
  TRACK 10 AUDIO
    TITLE "3:cjc114_1037"
    INDEX 01 00:08:64
  TRACK 11 AUDIO
    TITLE "0:"
    INDEX 01 00:10:31
  TRACK 12 AUDIO
    TITLE "4:cjc114_1038"
    INDEX 01 00:10:53
  TRACK 13 AUDIO
    TITLE "0:"
    INDEX 01 00:14:06
  TRACK 14 AUDIO
    TITLE "2:cjc114_1039"
    INDEX 01 00:14:58
  TRACK 15 AUDIO
    TITLE "0:"
    INDEX 01 00:15:56
  TRACK 16 AUDIO
    TITLE "3:cjc114_1040"
    INDEX 01 00:16:12
  TRACK 17 AUDIO
    TITLE "0:"
    INDEX 01 00:17:25
  TRACK 18 AUDIO
    TITLE "4:cjc114_1041"
    INDEX 01 00:17:53
  TRACK 19 AUDIO
    TITLE "0:"
    INDEX 01 00:20:36
  TRACK 20 AUDIO
    TITLE "2:cjc114_1042"
    INDEX 01 00:21:17
  TRACK 21 AUDIO
    TITLE "0:"
    INDEX 01 00:22:29
  TRACK 22 AUDIO
    TITLE "3:cjc114_1043"
    INDEX 01 00:22:54
  TRACK 23 AUDIO
    TITLE "0:"
    INDEX 01 00:24:00
  TRACK 24 AUDIO
    TITLE "4:cjc114_1044"
    INDEX 01 00:24:29
  TRACK 25 AUDIO
    TITLE "0:"
    INDEX 01 00:28:29
  TRACK 26 AUDIO
    TITLE "2:cjc114_1045"
    INDEX 01 00:29:05
  TRACK 27 AUDIO
    TITLE "0:"
    INDEX 01 00:30:10
  TRACK 28 AUDIO
    TITLE "3:cjc114_1046"
    INDEX 01 00:30:38
  TRACK 29 AUDIO
    TITLE "0:"
    INDEX 01 00:31:45
  TRACK 30 AUDIO
    TITLE "4:cjc114_1047"
    INDEX 01 00:32:00
  TRACK 31 AUDIO
    TITLE "0:"
    INDEX 01 00:35:15
  TRACK 32 AUDIO
    TITLE "2:cjc114_1048"
    INDEX 01 00:36:03
  TRACK 33 AUDIO
    TITLE "0:"
    INDEX 01 00:37:10
  TRACK 34 AUDIO
    TITLE "3:cjc114_1049"
    INDEX 01 00:37:40
  TRACK 35 AUDIO
    TITLE "0:"
    INDEX 01 00:38:57
  TRACK 36 AUDIO
    TITLE "4:cjc114_1050"
    INDEX 01 00:39:09
  TRACK 37 AUDIO
    TITLE "0:"
    INDEX 01 00:44:09
  TRACK 38 AUDIO
    TITLE "2:cjc114_1051"
    INDEX 01 00:44:61
  TRACK 39 AUDIO
    TITLE "0:"
    INDEX 01 00:46:02
  TRACK 40 AUDIO
    TITLE "3:cjc114_1052"
    INDEX 01 00:46:29
  TRACK 41 AUDIO
    TITLE "0:"
    INDEX 01 00:47:34
  TRACK 42 AUDIO
    TITLE "4:cjc114_1053"
    INDEX 01 00:47:62
  TRACK 43 AUDIO
    TITLE "0:"
    INDEX 01 00:50:62
  TRACK 44 AUDIO
    TITLE "2:cjc114_1054"
    INDEX 01 00:51:42
  TRACK 45 AUDIO
    TITLE "0:"
    INDEX 01 00:52:45
  TRACK 46 AUDIO
    TITLE "3:cjc114_1055"
    INDEX 01 00:53:00
  TRACK 47 AUDIO
    TITLE "0:"
    INDEX 01 00:54:07
  TRACK 48 AUDIO
    TITLE "4:cjc114_1056"
    INDEX 01 00:54:38
  TRACK 49 AUDIO
    TITLE "0:"
    INDEX 01 00:56:45
  TRACK 50 AUDIO
    TITLE "4:cjc114_1057"
    INDEX 01 00:57:58
  TRACK 51 AUDIO
    TITLE "0:"
    INDEX 01 01:00:21
  TRACK 52 AUDIO
    TITLE "2:cjc114_1058"
    INDEX 01 01:01:07
  TRACK 53 AUDIO
    TITLE "0:"
    INDEX 01 01:02:14
  TRACK 54 AUDIO
    TITLE "3:cjc114_1059"
    INDEX 01 01:02:44
  TRACK 55 AUDIO
    TITLE "0:"
    INDEX 01 01:03:61
  TRACK 56 AUDIO
    TITLE "4:cjc114_1060"
    INDEX 01 01:04:15
  TRACK 57 AUDIO
    TITLE "0:"
    INDEX 01 01:06:53
  TRACK 58 AUDIO
    TITLE "2:cjc114_1061"
    INDEX 01 01:07:31
  TRACK 59 AUDIO
    TITLE "0:"
    INDEX 01 01:08:29
  TRACK 60 AUDIO
    TITLE "3:cjc114_1062"
    INDEX 01 01:08:56
  TRACK 61 AUDIO
    TITLE "0:"
    INDEX 01 01:09:63
  TRACK 62 AUDIO
    TITLE "4:cjc114_1063"
    INDEX 01 01:10:16
  TRACK 63 AUDIO
    TITLE "0:"
    INDEX 01 01:12:71
  TRACK 64 AUDIO
    TITLE "2:cjc114_1064"
    INDEX 01 01:13:49
  TRACK 65 AUDIO
    TITLE "0:"
    INDEX 01 01:14:55
  TRACK 66 AUDIO
    TITLE "3:cjc114_1065"
    INDEX 01 01:15:07
  TRACK 67 AUDIO
    TITLE "0:"
    INDEX 01 01:16:03
  TRACK 68 AUDIO
    TITLE "4:cjc114_1066"
    INDEX 01 01:16:32
  TRACK 69 AUDIO
    TITLE "0:"
    INDEX 01 01:19:32
